#!OML:ASF H:\Punching\Project 1\Capture day 1\Session 1\female.ASF
:FULLY-SPECIFIED
:DEGREES
2324
root 0.402499 15.2972 9.49622 11.8731 21.7089 -0.121476
lowerback -2.14862 0.319047 0.608785
upperback -7.3345 0.509587 0.409235
thorax -6.40734 0.253214 0.0654826
lowerneck -9.17232 -1.4674 3.27504
upperneck 26.0847 -1.31844 -4.87556
head 9.668 -0.774163 -2.39593
rclavicle 2.94077e-014 -6.36111e-015
rhumerus -6.20995 -13.2586 -57.3927
rradius 119.021
rwrist 1.60054
rhand -41.3133 9.72683
rfingers 7.12502
rthumb -14.2335 -19.7654
lclavicle 2.94077e-014 -6.36111e-015
lhumerus -2.91503 -36.0562 77.1699
lradius 128.223
lwrist -1.18107
lhand -23.3902 8.87333
lfingers 7.12502
lthumb 3.06625 38.831
rfemur -29.0698 -6.52365 8.46468
rtibia 37.0439
rfoot -12.1308 -15.624
rtoes -7.45454
lfemur 0.321799 -13.0371 -6.56352
ltibia 5.81951
lfoot -16.048 8.52142
ltoes -14.7018
2325
root 0.301657 15.285 9.56981 11.7456 23.1001 -0.299515
lowerback -2.08077 0.453379 1.00322
upperback -7.39673 0.698376 0.331002
thorax -6.50782 0.322514 -0.244032
lowerneck -9.08569 -1.88226 2.82135
upperneck 26.5732 -1.8683 -4.56867
head 9.81041 -1.03175 -2.27805
rclavicle 5.59082e-015 1.47101e-014
rhumerus -4.83736 -13.8767 -58.0607
rradius 118.801
rwrist 2.12262
rhand -41.6055 9.89357
rfingers 7.12502
rthumb -14.5151 -19.5787
lclavicle 5.59082e-015 1.47101e-014
lhumerus -1.91404 -37.3982 77.3361
lradius 128.172
lwrist -1.16262
lhand -23.3534 8.81333
lfingers 7.12502
lthumb 3.10182 38.7705
rfemur -28.8007 -7.40972 9.24501
rtibia 37.8339
rfoot -13.0176 -16.0091
rtoes -7.03405
lfemur -0.245606 -13.4516 -5.63036
ltibia 6.27637
lfoot -16.1049 8.293
ltoes -14.7971
2326
root 0.201805 15.2724 9.64128 11.6292 24.479 -0.454599
lowerback -2.02508 0.585016 1.37102
upperback -7.44678 0.883615 0.256415
thorax -6.58621 0.39126 -0.535053
lowerneck -9.00813 -2.28404 2.36771
upperneck 27.0693 -2.40188 -4.26371
head 9.96417 -1.28122 -2.15966
rclavicle 1.23743e-014 -1.90833e-014
rhumerus -3.37467 -14.4484 -58.804
rradius 118.573
rwrist 2.52744
rhand -41.7669 9.94426
rfingers 7.12502
rthumb -14.6706 -19.5167
lclavicle 1.23743e-014 -1.90833e-014
lhumerus -0.927312 -38.6884 77.5008
lradius 128.141
lwrist -1.01512
lhand -23.0915 8.89755
lfingers 7.12502
lthumb 3.35472 38.8509
rfemur -28.5669 -8.29736 9.96325
rtibia 38.6209
rfoot -13.8428 -16.2992
rtoes -6.82918
lfemur -0.84062 -13.8503 -4.72908
ltibia 6.69133
lfoot -16.107 8.13945
ltoes -14.8286
2327
root 0.102726 15.2601 9.71057 11.5226 25.8473 -0.606839
lowerback -1.98555 0.716235 1.73033
upperback -7.48741 1.06863 0.189286
thorax -6.64315 0.460406 -0.813642
lowerneck -8.93284 -2.67271 1.91999
upperneck 27.5653 -2.91952 -3.96324
head 10.1249 -1.52239 -2.04246
rclavicle 1.49089e-016 -4.47266e-015
rhumerus -1.84628 -14.9571 -59.6202
rradius 118.299
rwrist 2.91181
rhand -41.9552 9.95639
rfingers 7.12502
rthumb -14.852 -19.4913
lclavicle 1.49089e-016 -4.47266e-015
lhumerus 0.0371373 -39.9402 77.6717
lradius 128.089
lwrist -0.833189
lhand -22.7414 9.00908
lfingers 7.12502
lthumb 3.69288 38.9568
rfemur -28.3727 -9.18576 10.651
rtibia 39.3945
rfoot -14.6086 -16.518
rtoes -6.7797
lfemur -1.48467 -14.2275 -3.83825
ltibia 7.08881
lfoot -16.0649 8.06361
ltoes -14.8185
2328
root 0.00482312 15.2479 9.77807 11.4192 27.2103 -0.757327
lowerback -1.96289 0.847652 2.08527
upperback -7.51629 1.25399 0.129884
thorax -6.67572 0.530235 -1.08157
lowerneck -8.85776 -3.05066 1.48544
upperneck 28.0561 -3.42288 -3.67862
head 10.2897 -1.75659 -1.93174
rclavicle -2.18415e-014 -2.57426e-014
rhumerus -0.255569 -15.3956 -60.4985
rradius 117.991
rwrist 3.23344
rhand -42.145 9.91175
rfingers 7.12502
rthumb -15.0348 -19.5224
lclavicle -2.18415e-014 -2.57426e-014
lhumerus 0.969885 -41.1686 77.862
lradius 127.991
lwrist -0.683779
lhand -22.3682 9.1186
lfingers 7.12502
lthumb 4.05318 39.0598
rfemur -28.2032 -10.0958 11.3213
rtibia 40.1446
rfoot -15.3245 -16.6847
rtoes -6.84788
lfemur -2.1751 -14.5887 -2.96092
ltibia 7.48171
lfoot -15.9971 8.05009
ltoes -14.7584
2329
root -0.09168 15.2361 9.84376 11.3161 28.5682 -0.9056
lowerback -1.95346 0.97863 2.43328
upperback -7.53512 1.43881 0.0808003
thorax -6.68805 0.600697 -1.33455
lowerneck -8.77545 -3.41788 1.0721
upperneck 28.5347 -3.90967 -3.42298
head 10.4536 -1.98346 -1.83296
rclavicle -1.94312e-014 -9.93923e-016
rhumerus 1.39018 -15.7453 -61.4192
rradius 117.652
rwrist 3.47235
rhand -42.3444 9.75589
rfingers 7.12502
rthumb -15.2269 -19.6637
lclavicle -1.94312e-014 -9.93923e-016
lhumerus 1.8556 -42.3827 78.0879
lradius 127.832
lwrist -0.612279
lhand -22.0436 9.17383
lfingers 7.12502
lthumb 4.36662 39.1088
rfemur -28.0501 -11.0356 11.9831
rtibia 40.8617
rfoot -15.9986 -16.8281
rtoes -6.97608
lfemur -2.91125 -14.9348 -2.10196
ltibia 7.88236
lfoot -15.9178 8.08538
ltoes -14.6657
2330
root -0.18611 15.2247 9.90786 11.2066 29.9238 -1.04606
lowerback -1.95455 1.11545 2.78436
upperback -7.54655 1.63104 0.0303299
thorax -6.68378 0.674835 -1.59055
lowerneck -8.66311 -3.78206 0.684372
upperneck 28.9956 -4.39263 -3.19083
head 10.609 -2.20773 -1.74557
rclavicle -7.88927e-015 -1.31198e-014
rhumerus 3.06748 -16.0125 -62.3746
rradius 117.252
rwrist 3.66466
rhand -42.5937 9.60342
rfingers 7.12502
rthumb -15.4671 -19.7978
lclavicle -7.88927e-015 -1.31198e-014
lhumerus 2.68219 -43.6137 78.3622
lradius 127.617
lwrist -0.611043
lhand -21.7798 9.19232
lfingers 7.12502
lthumb 4.62143 39.1219
rfemur -27.8954 -12.0074 12.6305
rtibia 41.5381
rfoot -16.6544 -16.9651
rtoes -7.07309
lfemur -3.67395 -15.273 -1.27376
ltibia 8.28837
lfoot -15.835 8.14973
ltoes -14.5195
2331
root -0.278334 15.2134 9.97005 11.0851 31.273 -1.18135
lowerback -1.96076 1.26225 3.13235
upperback -7.5488 1.83638 -0.0153248
thorax -6.66394 0.756194 -1.83981
lowerneck -8.53042 -4.14756 0.328226
upperneck 29.4451 -4.87479 -2.99703
head 10.759 -2.43185 -1.67656
rclavicle -1.31869e-013 -3.58806e-014
rhumerus 4.76956 -16.1975 -63.3203
rradius 116.784
rwrist 3.80735
rhand -42.8993 9.51747
rfingers 7.12502
rthumb -15.7614 -19.8608
lclavicle -1.31869e-013 -3.58806e-014
lhumerus 3.45472 -44.8785 78.6805
lradius 127.288
lwrist -0.777011
lhand -21.7826 9.01723
lfingers 7.12502
lthumb 4.61867 38.9469
rfemur -27.7328 -13.0063 13.2683
rtibia 42.1684
rfoot -17.2938 -17.1105
rtoes -7.1241
lfemur -4.45268 -15.6014 -0.478322
ltibia 8.70314
lfoot -15.755 8.23304
ltoes -14.334
2332
root -0.367725 15.2017 10.0304 10.955 32.6048 -1.30528
lowerback -1.96202 1.41667 3.4832
upperback -7.55126 2.05217 -0.0606455
thorax -6.6441 0.842662 -2.09056
lowerneck -8.37176 -4.5097 -0.0122258
upperneck 29.8844 -5.34998 -2.82742
head 10.9033 -2.65309 -1.61734
rclavicle 1.2424e-017 1.09332e-014
rhumerus 6.49657 -16.2896 -64.2567
rradius 116.251
rwrist 3.89
rhand -43.1979 9.52853
rfingers 7.12502
rthumb -16.0489 -19.8268
lclavicle 1.2424e-017 1.09332e-014
lhumerus 4.14505 -46.1712 79.0647
lradius 126.874
lwrist -1.09934
lhand -21.9388 8.77738
lfingers 7.12502
lthumb 4.46791 38.7103
rfemur -27.5616 -14.0228 13.8864
rtibia 42.751
rfoot -17.9262 -17.2688
rtoes -7.08875
lfemur -5.23101 -15.9131 0.270889
ltibia 9.12477
lfoot -15.6789 8.34794
ltoes -14.1177
2333
root -0.454396 15.1893 10.0884 10.8198 33.8991 -1.42695
lowerback -1.95738 1.58394 3.84058
upperback -7.55516 2.28579 -0.102734
thorax -6.62543 0.937755 -2.34208
lowerneck -8.19587 -4.86515 -0.328913
upperneck 30.3136 -5.81307 -2.68834
head 11.0428 -2.86905 -1.57116
rclavicle 2.38542e-015 -7.35503e-015
rhumerus 8.23257 -16.2857 -65.1626
rradius 115.659
rwrist 3.89182
rhand -43.4773 9.64776
rfingers 7.12502
rthumb -16.318 -19.6857
lclavicle 2.38542e-015 -7.35503e-015
lhumerus 4.76055 -47.4712 79.5076
lradius 126.37
lwrist -1.56288
lhand -22.2714 8.40393
lfingers 7.12502
lthumb 4.14673 38.3433
rfemur -27.4013 -15.0295 14.4927
rtibia 43.2892
rfoot -18.5451 -17.4481
rtoes -6.95755
lfemur -6.00576 -16.1864 0.977631
ltibia 9.55723
lfoot -15.6147 8.47832
ltoes -13.8686
2334
root -0.538271 15.176 10.1437 10.6861 35.1288 -1.54301
lowerback -1.94069 1.76893 4.20096
upperback -7.56553 2.54412 -0.144423
thorax -6.61597 1.04473 -2.59591
lowerneck -8.01221 -5.20934 -0.62199
upperneck 30.7406 -6.25861 -2.57477
head 11.1821 -3.0766 -1.53609
rclavicle 1.26999e-013 1.63003e-014
rhumerus 9.96273 -16.1776 -66.0293
rradius 115.016
rwrist 3.82262
rhand -43.7276 9.71485
rfingers 7.12502
rthumb -16.559 -19.5986
lclavicle 1.26999e-013 1.63003e-014
lhumerus 5.2995 -48.7639 80.0067
lradius 125.816
lwrist -2.1175
lhand -22.6897 7.95818
lfingers 7.12502
lthumb 3.74277 37.9051
rfemur -27.2695 -15.9998 15.0818
rtibia 43.7917
rfoot -19.1464 -17.646
rtoes -6.73726
lfemur -6.76029 -16.3976 1.63003
ltibia 9.98993
lfoot -15.5755 8.60093
ltoes -13.5637
2335
root -0.619349 15.1617 10.196 10.5563 36.2683 -1.66402
lowerback -1.91707 1.9664 4.56082
upperback -7.58069 2.82053 -0.173159
thorax -6.61173 1.16098 -2.83655
lowerneck -7.84078 -5.52815 -0.890377
upperneck 31.1686 -6.66392 -2.49466
head 11.3257 -3.26633 -1.51341
rclavicle -1.00635e-015 -1.03368e-014
rhumerus 11.6942 -15.9385 -66.8762
rradius 114.257
rwrist 3.79384
rhand -44.0347 9.81025
rfingers 7.12502
rthumb -16.8546 -19.4783
lclavicle -1.00635e-015 -1.03368e-014
lhumerus 5.75825 -49.989 80.5615
lradius 125.263
lwrist -2.67482
lhand -23.0194 7.53836
lfingers 7.12502
lthumb 3.4244 37.4906
rfemur -27.1877 -16.9064 15.6629
rtibia 44.2712
rfoot -19.7248 -17.8582
rtoes -6.45882
lfemur -7.47883 -16.5211 2.23097
ltibia 10.4113
lfoot -15.5735 8.68904
ltoes -13.2458
